<svg width="109" height="32" viewBox="0 0 109 32" version="1.1" xmlns="http://www.w3.org/2000/svg" xmlns:xlink="http://www.w3.org/1999/xlink">
<title>bc-logo-white</title>
<desc>Created using Figma</desc>
<g id="Canvas" transform="translate(-16920 -19314)">
<g id="bc-logo-white">
<g id="Shape">
<use xlink:href="#path0_fill" transform="translate(16957.9 19315.5)" fill="#FFFFFF"/>
</g>
<g id="Rectangle-path">
<use xlink:href="#path1_fill" transform="translate(16980.6 19315.5)" fill="#FFFFFF"/>
</g>
<g id="Rectangle-path">
<use xlink:href="#path1_fill" transform="translate(16996.8 19315.5)" fill="#FFFFFF"/>
</g>
<g id="Shape">
<use xlink:href="#path2_fill" transform="translate(17001.2 19315.4)" fill="#FFFFFF"/>
</g>
<g id="Shape">
<use xlink:href="#path3_fill" transform="translate(17012.5 19315.5)" fill="#FFFFFF"/>
</g>
<g id="Shape">
<use xlink:href="#path4_fill" transform="translate(16956.7 19330.7)" fill="#FFFFFF"/>
</g>
<g id="Shape">
<use xlink:href="#path5_fill" transform="translate(17005.3 19330.7)" fill="#FFFFFF"/>
</g>
<g id="Shape">
<use xlink:href="#path6_fill" transform="translate(16966.8 19330.8)" fill="#FFFFFF"/>
</g>
<g id="Shape">
<use xlink:href="#path7_fill" transform="translate(16980.6 19330.9)" fill="#FFFFFF"/>
</g>
<g id="Shape">
<use xlink:href="#path8_fill" transform="translate(16993 19330.8)" fill="#FFFFFF"/>
</g>
<g id="Rectangle-path">
<use xlink:href="#path1_fill" transform="translate(17016.8 19330.9)" fill="#FFFFFF"/>
</g>
<g id="Shape">
<use xlink:href="#path9_fill" transform="translate(17021.1 19330.9)" fill="#FFFFFF"/>
</g>
<g id="Shape">
<use xlink:href="#path10_fill" transform="translate(16984.5 19315.5)" fill="#FFFFFF"/>
</g>
<g id="Shape">
<use xlink:href="#path11_fill" transform="translate(16969.2 19315.5)" fill="#FFFFFF"/>
</g>
<g id="Oval">
<use xlink:href="#path12_fill" transform="translate(16936.5 19314)" fill="#FFFFFF"/>
</g>
<g id="Oval">
<use xlink:href="#path12_fill" transform="translate(16920 19314)" fill="#FFFFFF"/>
</g>
<g id="Oval">
<use xlink:href="#path12_fill" transform="translate(16936.5 19330.5)" fill="#FFFFFF"/>
</g>
<g id="Oval">
<use xlink:href="#path12_fill" transform="translate(16920 19330.5)" fill="#FFFFFF"/>
</g>
</g>
</g>
<defs>
<path id="path0_fill" fill-rule="evenodd" d="M 0 12.9746L 0 0.00585938L 4.75977 0.00585938C 4.89844 0 5.03516 -0.00195312 5.17188 0.00195312L 5.44141 0.0195312C 5.98047 0.0683594 6.50977 0.201172 7.00977 0.416016C 8.16406 0.935547 8.91016 2.08008 8.91992 3.3457C 8.96875 4.47656 8.36133 5.53711 7.35938 6.06445C 8.81445 6.29492 9.85547 7.5957 9.75977 9.06445C 9.76172 10.1035 9.33594 11.0605 8.62891 11.7441C 8.1582 12.2012 7.56445 12.5371 6.89062 12.6953C 6.27148 12.8613 5.63477 12.957 4.99609 12.9766C 4.80078 12.9824 4.60547 12.9824 4.41016 12.9746L 0 12.9746ZM 5.83008 2.22461C 5.44531 2.06055 5.0293 1.98633 4.61133 2.00391L 2.2207 2.00391L 2.2207 5.39453L 4.46094 5.39453C 4.73438 5.41211 5.00781 5.38867 5.27539 5.32812C 5.49805 5.27734 5.71484 5.19922 5.91992 5.0957C 6.20508 4.91211 6.42383 4.65039 6.55273 4.34766C 6.62109 4.19141 6.66406 4.02344 6.67969 3.85156C 6.6875 3.7793 6.68945 3.70508 6.6875 3.63086C 6.66602 3.04297 6.33789 2.50781 5.83008 2.22461ZM 5.03125 7.38477C 5.5332 7.34961 6.03711 7.42188 6.50977 7.5957L 6.50977 7.63477C 7.09766 7.87891 7.48047 8.45117 7.48047 9.08594C 7.51172 9.60156 7.30469 10.0918 6.93359 10.4258C 6.81445 10.5332 6.67969 10.625 6.53125 10.6953C 6.24219 10.8184 5.94141 10.9043 5.63281 10.9531C 5.38477 10.9922 5.13281 11.0078 4.88086 10.9961L 2.2207 10.9961L 2.2207 7.38477L 5.03125 7.38477Z"/>
<path id="path1_fill" d="M 0 0L 2.22 0L 2.22 12.97L 0 12.97L 0 0Z"/>
<path id="path2_fill" d="M 4.99 0.000338745C 6.22782 -0.0104851 7.45417 0.238192 8.59 0.730339L 8.59 2.86034C 7.47197 2.27581 6.23154 1.96399 4.97 1.95034C 3.75 1.95034 2.71 2.33034 2.71 3.35034C 2.71 6.01034 9.39 4.94034 9.39 9.35034C 9.39 11.7703 7.39 13.3503 4.39 13.3503C 2.84652 13.3857 1.32454 12.9835 0 12.1903L 0.92 10.3803C 1.98634 11.0311 3.21075 11.377 4.46 11.3803C 5.8 11.3803 7.04 10.8703 7.04 9.69034C 7.04 6.91034 0.43 8.13034 0.43 3.69034C 0.37 1.30034 2.26 0.000338745 4.99 0.000338745Z"/>
<path id="path3_fill" d="M 8.52 12.98L 8.52 7.39L 2.22 7.39L 2.22 12.98L 0 12.98L 0 0L 2.22 0L 2.22 5.32L 8.52 5.32L 8.52 0L 10.75 0L 10.75 12.98L 8.52 12.98Z"/>
<path id="path4_fill" d="M 6.1 0.000484034C 7.34224 -0.0128674 8.57191 0.250145 9.7 0.770484L 9.03 2.66048C 8.19322 2.23565 7.26845 2.01302 6.33 2.01048C 3.87 2.01048 2.33 4.10048 2.33 6.63048C 2.33 9.16048 3.77 11.2805 6.33 11.2805C 7.2689 11.2817 8.19454 11.0589 9.03 10.6305L 9.7 12.5205C 8.5708 13.0364 7.34139 13.296 6.1 13.2805C 2.22 13.2805 0 10.5705 0 6.67048C 0 3.04048 2.22 0.000484034 6.1 0.000484034Z"/>
<path id="path5_fill" d="M 6.11 0.000532497C 7.35231 -0.0134889 8.58212 0.249555 9.71 0.770532L 9.04 2.66053C 8.20322 2.2357 7.27845 2.01307 6.34 2.01053C 3.88 2.01053 2.34 4.10053 2.34 6.63053C 2.34 9.16053 3.78 11.2805 6.34 11.2805C 7.2789 11.2818 8.20454 11.0589 9.04 10.6305L 9.71 12.5205C 8.58101 13.0371 7.35145 13.2967 6.11 13.2805C 2.23 13.2805 0 10.5705 0 6.67053C -1.42109e-14 3.04053 2.23 0.000532497 6.11 0.000532497Z"/>
<path id="path6_fill" fill-rule="evenodd" d="M 6.14062 13.2793C 9.80078 13.2793 12.2793 10.4902 12.2793 6.58984C 12.2793 2.69922 9.80078 0 6.14062 0C 2.48047 0 0 2.80078 0 6.68945C 0 10.5801 2.48047 13.2793 6.14062 13.2793ZM 6.13867 1.94922C 8.33008 1.94922 9.93945 3.75977 9.93945 6.58984L 9.92969 6.62891C 9.92969 9.47852 8.33008 11.2988 6.15039 11.2988C 3.96875 11.2988 2.34961 9.50977 2.34961 6.64844C 2.34961 3.78906 3.94922 1.94922 6.13867 1.94922Z"/>
<path id="path7_fill" d="M 0 8.09L 0 0L 2.23 0L 2.23 8.17C 2.23 10.33 3.39 11.17 5.23 11.17C 7.07 11.17 8.23 10.36 8.23 8.17L 8.23 0L 10.45 0L 10.45 8.09C 10.45 11.62 8.45 13.17 5.17 13.17C 1.89 13.17 0 11.62 0 8.09Z"/>
<path id="path8_fill" d="M 2.21 3.55C 2.21 3.98 2.27 4.67 2.27 5.28L 2.27 13L 0 13L 0 0L 2.4 0L 8.4 8.84C 8.4 8.41 8.34 7.72 8.34 7.11L 8.34 0.01L 10.56 0.01L 10.56 13.01L 8.56 13.01L 2.21 3.55Z"/>
<path id="path9_fill" d="M 0 12.97L 0 0L 2.23 0L 2.23 10.96L 7.3 10.96L 7.3 12.97L 0 12.97Z"/>
<path id="path10_fill" d="M 10.53 0L 0 0L 0 2.02L 4.15 2.02L 4.15 12.97L 6.37 12.97L 6.37 2.02L 10.53 2.02L 10.53 0Z"/>
<path id="path11_fill" fill-rule="evenodd" d="M 7.24023 12.584L 7.43945 13L 10 12.9609C 8.39453 9.75586 7.63086 8.25 7.10352 7.54883C 6.91797 7.30273 6.76172 7.15625 6.60938 7.07031C 8.08398 6.65039 9.07812 5.27148 9.00977 3.74023C 9.00977 1.76953 7.74023 0 4.39062 0L 0 0L 0 13L 2.21094 13L 2.21094 8L 4.26953 8C 5.03125 8 5.51562 9.00391 7.24023 12.584ZM 2.21094 2L 4.51172 2L 4.51172 2.03906C 6.06055 2.03906 6.75 2.76953 6.75 3.93945C 6.75 5.10938 6.01172 5.93945 4.41016 5.93945L 2.21094 5.93945L 2.21094 2Z"/>
<path id="path12_fill" d="M 7.42 14.84C 11.518 14.84 14.84 11.518 14.84 7.42C 14.84 3.32205 11.518 0 7.42 0C 3.32205 0 0 3.32205 0 7.42C 0 11.518 3.32205 14.84 7.42 14.84Z"/>
</defs>
</svg>
