<svg width="40" height="40" viewBox="0 0 40 40" version="1.1" xmlns="http://www.w3.org/2000/svg" xmlns:xlink="http://www.w3.org/1999/xlink">
<title>logo</title>
<desc>Created using Figma</desc>
<g id="Canvas" transform="translate(-16837 -19310)">
<g id="logo">
<g id="Shape">
<use xlink:href="#path0_fill" transform="translate(16837 19310)" fill="#FFFFFF"/>
</g>
<g id="Shape">
<use xlink:href="#path1_fill" transform="translate(16845.8 19320.2)" fill="#010101"/>
</g>
</g>
</g>
<defs>
<path id="path0_fill" d="M 0 0L 40 0L 40 40L 0 40L 0 0Z"/>
<path id="path1_fill" d="M 0.0112676 0.00367922C 6.95211 0.00367922 13.8873 -0.00758839 20.8282 0.00931302C 20.8338 0.972693 20.8113 1.93607 20.8 2.89945C 19.8254 2.91072 18.8507 2.88255 17.8817 2.88819C 17.9268 7.33889 17.7746 11.7896 17.9549 16.229C 18.2254 18.06 20.4169 17.9135 21.7746 17.6375C 21.7634 18.5558 21.7634 19.4685 21.7746 20.3868C 20.2028 20.6741 18.5352 20.9276 16.9972 20.3699C 15.3803 19.7333 14.4732 17.9755 14.4338 16.3023C 14.2986 11.8347 14.4958 7.36706 14.3437 2.90509C 11.8141 2.88255 9.27887 2.91072 6.75493 2.87128C 6.71549 8.69664 6.76056 14.522 6.73239 20.353C 5.55493 20.3473 4.37746 20.3417 3.20563 20.3361C 3.22254 14.522 3.21127 8.70227 3.21127 2.88819C 2.14085 2.88255 1.07042 2.89945 0 2.89382C 0.0112676 1.93044 0.0056338 0.967059 0.0112676 0.00367922Z"/>
</defs>
</svg>
