<svg width="73" height="50" viewBox="0 0 73 50" version="1.1" xmlns="http://www.w3.org/2000/svg" xmlns:xlink="http://www.w3.org/1999/xlink">
<title>youtube-play</title>
<desc>Created using Figma</desc>
<g id="Canvas" transform="translate(-17565 -1281)">
<g id="youtube-play">
<g id="bg" opacity="0.7">
<use xlink:href="#path0_fill" transform="translate(17565 1281)"/>
</g>
<g id="Rectangle 9">
<use xlink:href="#path1_fill" transform="translate(17595 1294.23)" fill="#FFFFFF"/>
</g>
</g>
</g>
<defs>
<path id="path0_fill" fill-rule="evenodd" d="M 54.4906 0.177699C 58.8315 0.313394 61.1889 0.810177 62.7579 1.22767C 64.8359 1.78086 66.3192 2.44179 67.8771 3.50883C 69.435 4.57587 70.3999 5.59183 71.2074 7.01512C 71.8171 8.08978 72.5424 9.70445 72.7406 12.6775C 72.9548 15.8932 73 16.8576 73 25C 73 33.1424 72.9548 34.1068 72.7406 37.3224C 72.5424 40.2956 71.8171 41.9102 71.2074 42.9849C 70.3999 44.4082 69.435 45.4241 67.8771 46.4912C 66.3192 47.5582 64.8359 48.2191 62.7579 48.7722C 61.1889 49.1898 58.8315 49.6866 54.4906 49.8223C 49.7967 49.969 48.3887 50 36.5 50C 24.6113 50 23.2033 49.969 18.5094 49.8223C 14.1685 49.6866 11.8111 49.1898 10.2422 48.7722C 8.16407 48.2191 6.68077 47.5582 5.12289 46.4912C 3.56501 45.4241 2.60006 44.4082 1.79258 42.9849C 1.18286 41.9102 0.457556 40.2956 0.259441 37.3225C 0.0452431 34.1068 0 33.1424 0 25C 0 16.8576 0.0452431 15.8932 0.259441 12.6776C 0.457556 9.70445 1.18286 8.08978 1.79258 7.01512C 2.60006 5.59183 3.56501 4.57587 5.12289 3.50883C 6.68077 2.44179 8.16407 1.78086 10.2422 1.22767C 11.8111 0.810177 14.1685 0.313394 18.5092 0.177699C 23.204 0.0309884 24.612 0 36.5 0C 48.388 0 49.796 0.0309884 54.4906 0.177699Z"/>
<path id="path1_fill" fill-rule="evenodd" d="M 0 1.76619C 0 0.988897 0.847971 0.508783 1.5145 0.908697L 17.6771 10.6063C 18.3245 10.9947 18.3244 11.9328 17.6771 12.3213L 1.51449 22.0188C 0.84797 22.4187 0 21.9386 0 21.1613L 0 1.76619Z"/>
</defs>
</svg>
