<svg width="32" height="32" viewBox="0 0 32 32" version="1.1" xmlns="http://www.w3.org/2000/svg" xmlns:xlink="http://www.w3.org/1999/xlink">
<title>Shape</title>
<desc>Created using Figma</desc>
<g id="Canvas" transform="translate(-23015 -21007)">
<g id="Shape">
<use xlink:href="#path0_fill" transform="translate(23015 21007)" fill="#EB663A"/>
</g>
</g>
<defs>
<path id="path0_fill" fill-rule="evenodd" d="M 31.1719 11.332L 30.8691 11.332L 30.2891 12.7812L 26.2617 14.125L 29.1699 15.582L 28.8145 16.4727L 29.0508 16.5371C 28.9922 16.6289 28.9277 16.7129 28.8594 16.7969L 28.7441 16.9375L 28.7148 16.9727C 28.6465 17.0547 28.5781 17.1367 28.5156 17.2207L 28.3574 17.6172L 28.2598 17.5449C 28.1875 17.6367 28.1191 17.7305 28.0508 17.8262C 27.9277 17.998 27.8047 18.1699 27.6582 18.3164C 22.3926 23.582 15.041 25.9395 10.6992 22.6992L 1.39648 32L 0 30.6016L 9.30078 21.3008C 6.06836 16.957 8.42578 9.60938 13.6875 4.3457C 19.2773 -1.24219 31.8496 0.154297 31.8496 0.154297C 31.8496 0.154297 32.4766 5.88672 31.1719 11.332ZM 15.0859 5.74414C 14.6152 6.21484 14.1836 6.71289 13.7656 7.2168L 16.4824 9.93555L 15.0859 11.332L 12.5645 8.8125C 12.1719 9.38281 11.8281 9.96484 11.5098 10.5508L 13.6895 12.7305L 12.291 14.127L 10.6289 12.4609C 9.54102 15.25 9.41797 17.957 10.709 19.8945L 28.7656 1.8418C 26.0312 1.58008 19.3711 1.45898 15.0859 5.74414ZM 12.1055 21.291L 30.168 3.23047C 30.3262 4.89062 30.418 8.01758 29.5059 11.1777L 22.7676 13.4258L 26.7051 16.3789L 26.6465 16.4551C 26.5273 16.6133 26.4062 16.7715 26.2598 16.918C 21.7676 21.4102 15.6484 23.6562 12.1055 21.291Z"/>
</defs>
</svg>
