<svg width="13" height="20" viewBox="0 0 13 20" version="1.1" xmlns="http://www.w3.org/2000/svg" xmlns:xlink="http://www.w3.org/1999/xlink">
<title>Shape</title>
<desc>Created using Figma</desc>
<g id="Canvas" transform="translate(-17728 -20773)">
<g id="Shape">
<use xlink:href="#path0_fill" transform="translate(17728.8 20773.2)" fill="#FFFFFF"/>
</g>
</g>
<defs>
<path id="path0_fill" fill-rule="evenodd" d="M 7.84961 5.08203C 7.84961 3.92188 6.89844 2.97852 5.73047 2.97852C 4.5625 2.97852 3.61133 3.92188 3.61133 5.08203C 3.61133 6.24219 4.5625 7.18555 5.73047 7.18555C 6.89844 7.18555 7.84961 6.24219 7.84961 5.08203ZM 10.8496 5.08203C 10.8496 7.88281 8.55469 10.1621 5.73047 10.1621C 2.9082 10.1621 0.613281 7.88281 0.613281 5.08203C 0.613281 2.2793 2.9082 0 5.73047 0C 8.55469 0 10.8496 2.2793 10.8496 5.08203ZM 10.7871 13.0879C 9.86133 13.666 8.85547 14.0742 7.81445 14.3105L 10.6758 17.1504C 11.0078 17.4805 11.1523 17.9258 11.1074 18.3555C 11.0742 18.6836 10.9297 19.0039 10.6758 19.2559C 10.0898 19.8379 9.14062 19.8379 8.55664 19.2559L 5.74219 16.4648L 2.93164 19.2559C 2.63867 19.5469 2.25586 19.6914 1.87109 19.6914C 1.48828 19.6914 1.10547 19.5469 0.810547 19.2559C 0.226562 18.6758 0.226562 17.7324 0.810547 17.1504L 3.67188 14.3105C 2.63086 14.0742 1.625 13.6641 0.701172 13.0879C 0 12.6504 -0.210938 11.7305 0.230469 11.0352C 0.669922 10.3379 1.5957 10.1289 2.29883 10.5664C 4.39258 11.875 7.0918 11.875 9.18945 10.5664C 9.89062 10.1289 10.8164 10.3379 11.2559 11.0352C 11.6973 11.7305 11.4863 12.6504 10.7871 13.0879Z"/>
</defs>
</svg>
