<svg width="11" height="14" viewBox="0 0 11 14" version="1.1" xmlns="http://www.w3.org/2000/svg" xmlns:xlink="http://www.w3.org/1999/xlink">
<title>Shape</title>
<desc>Created using Figma</desc>
<g id="Canvas" transform="translate(-17079 -20096)">
<g id="Shape">
<use xlink:href="#path0_fill" transform="matrix(1 0 0 -1 17079 20110)" fill="#EB663A"/>
</g>
</g>
<defs>
<path id="path0_fill" d="M 10.8255 6.357C 10.6355 6.548 10.3275 6.548 10.1375 6.357L 5.9825 1.775L 5.9825 13.501C 5.9825 13.776 5.7595 14 5.4845 14C 5.2095 14 4.9855 13.776 4.9855 13.501L 4.9855 1.776L 0.8305 6.357C 0.6415 6.548 0.3325 6.548 0.1425 6.357C -0.0475 6.167 -0.0475 5.858 0.1425 5.667L 5.0825 0.22C 5.0885 0.211 5.0985 0.208 5.1045 0.199C 5.1165 0.182 5.1115 0.159 5.1265 0.143C 5.1465 0.124 5.1745 0.13 5.1945 0.115C 5.2655 0.056 5.3495 0.017 5.4465 0.01C 5.4575 0.01 5.4655 0.002 5.4755 0.002C 5.4785 0.002 5.4795 0 5.4825 0C 5.4845 0 5.4875 0.002 5.4905 0.002C 5.4965 0.002 5.5015 0.006 5.5085 0.006C 5.6265 0.012 5.7335 0.059 5.8155 0.134C 5.8225 0.14 5.8335 0.137 5.8395 0.144C 5.8455 0.151 5.8425 0.161 5.8495 0.167C 5.8555 0.174 5.8545 0.186 5.8595 0.191L 10.8255 5.667C 11.0165 5.858 11.0165 6.167 10.8255 6.357Z"/>
</defs>
</svg>
