<svg width="32" height="33" viewBox="0 0 32 33" version="1.1" xmlns="http://www.w3.org/2000/svg" xmlns:xlink="http://www.w3.org/1999/xlink">
<title>Shape</title>
<desc>Created using Figma</desc>
<g id="Canvas" transform="translate(-19034 -21515)">
<g id="Shape">
<use xlink:href="#path0_fill" transform="translate(19034 21515)" fill="#6A6866"/>
</g>
</g>
<defs>
<path id="path0_fill" fill-rule="evenodd" d="M 16 28.002C 15.7441 28.002 15.4902 27.9961 15.2383 27.9844L 14.8164 27.959L 14.1914 27.9062L 6 32.002L 6 24.9199C 2.3457 22.3555 0 18.4199 0 14.002C 0 6.26953 7.16211 0 16 0C 24.8359 0 32 6.26953 32 14.002C 32 21.7324 24.8359 28.002 16 28.002ZM 16 2.00195C 8.26758 2.00195 2 7.375 2 14.002C 2 18.0664 4.38867 21.6191 8 23.7852L 8 24.002L 8 29.002L 14 26.0039L 16 26.002C 23.7305 26.002 30 20.6289 30 14.002C 30 7.375 23.7305 2.00195 16 2.00195ZM 22.7852 15.5898C 23.1211 15.8477 23.543 16.002 24 16.002C 24.3379 16.002 24.6582 15.918 24.9375 15.7695C 25.1406 15.6621 25.3223 15.5195 25.4746 15.3516C 25.8008 14.9961 26 14.5215 26 14.002C 26 12.8984 25.1035 12.002 24 12.002C 23.1855 12.002 22.4863 12.4883 22.1738 13.1875C 22.0625 13.4375 22 13.7129 22 14.002C 22 14.6484 22.3086 15.2246 22.7852 15.5898ZM 16 16.002C 14.8945 16.002 14 15.1055 14 14.002C 14 12.8984 14.8945 12.002 16 12.002C 16.5059 12.002 16.9668 12.1895 17.3184 12.5C 17.7363 12.8672 18 13.4043 18 14.002C 18 14.6387 17.7031 15.2051 17.2402 15.5703C 16.8984 15.8398 16.4668 16.002 16 16.002ZM 6 14.002C 6 15.1055 6.89453 16.002 8 16.002C 9.10352 16.002 10 15.1055 10 14.002C 10 12.8984 9.10352 12.002 8 12.002C 6.89453 12.002 6 12.8984 6 14.002Z"/>
</defs>
</svg>
