<svg width="20" height="18" viewBox="0 0 20 18" version="1.1" xmlns="http://www.w3.org/2000/svg" xmlns:xlink="http://www.w3.org/1999/xlink">
<title>Shape</title>
<desc>Created using Figma</desc>
<g id="Canvas" transform="translate(-17769 -20774)">
<g id="Shape">
<use xlink:href="#path0_fill" transform="translate(17769.2 20774.4)" fill="#FFFFFF"/>
</g>
</g>
<defs>
<path id="path0_fill" fill-rule="evenodd" d="M 17.3725 2.66852C 18.207 2.14189 18.8474 1.30683 19.1479 0.31208C 18.3665 0.800923 17.5031 1.15445 16.5819 1.34584C 15.8468 0.516882 14.7961 0 13.6333 0C 11.4025 0 9.59476 1.90783 9.59476 4.26062C 9.59476 4.59464 9.62827 4.92013 9.69763 5.23099C 6.34102 5.05301 3.3647 3.35851 1.37084 0.77898C 1.02293 1.41045 0.824125 2.14189 0.824125 2.92209C 0.824125 4.39959 1.53729 5.70399 2.62148 6.46956C 1.95917 6.44761 1.33617 6.25378 0.790605 5.93683L 0.790605 5.98925C 0.790605 8.05434 2.18225 9.77687 4.03278 10.167C 3.69296 10.2669 3.33695 10.3169 2.96708 10.3169C 2.70701 10.3169 2.45273 10.2913 2.20768 10.2413C 2.72088 11.9334 4.21309 13.1671 5.98155 13.2C 4.59799 14.3435 2.85612 15.0237 0.963983 15.0237C 0.638032 15.0237 0.315549 15.0054 0 14.9652C 1.78811 16.1733 3.91141 16.8791 6.19307 16.8791C 13.6252 16.8791 17.6869 10.3864 17.6869 4.75556C 17.6869 4.57026 17.6846 4.38618 17.6765 4.20454C 18.4659 3.60354 19.1525 2.8526 19.6923 1.99804C 18.9676 2.33694 18.1885 2.56612 17.3725 2.66852Z"/>
</defs>
</svg>
