<svg width="10" height="10" viewBox="0 0 10 10" version="1.1" xmlns="http://www.w3.org/2000/svg" xmlns:xlink="http://www.w3.org/1999/xlink">
<title>Shape</title>
<desc>Created using Figma</desc>
<g id="Canvas" transform="translate(-17746 -22383)">
<g id="Shape">
<use xlink:href="#path0_fill" transform="translate(17746 22383)"/>
</g>
</g>
<defs>
<path id="path0_fill" d="M 9.998 0.510148L 9.999 0.512152L 9.999 7.49386C 9.999 7.77048 9.77353 7.99298 9.49696 7.99298C 9.21938 7.99298 8.99391 7.77048 8.99391 7.49386L 8.99391 1.69782L 0.835985 9.85718C 0.64559 10.0476 0.334945 10.0476 0.143548 9.85718C -0.0478493 9.66575 -0.0478493 9.35505 0.143548 9.16362L 8.30148 1.00426L 2.50645 1.00426C 2.23088 1.00426 2.00742 0.778752 2.00742 0.501128C 2.00742 0.225507 2.23088 0 2.50645 0L 9.50096 0C 9.77654 0 10 0.225507 10 0.501128C 10 0.504134 9.998 0.507141 9.998 0.510148Z"/>
</defs>
</svg>
