<svg width="16" height="15" viewBox="0 0 16 15" version="1.1" xmlns="http://www.w3.org/2000/svg" xmlns:xlink="http://www.w3.org/1999/xlink">
<title>Shape</title>
<desc>Created using Figma</desc>
<g id="Canvas" transform="translate(-17246 -22380)">
<g id="Shape">
<use xlink:href="#path0_fill" transform="translate(17246 22380)"/>
</g>
</g>
<defs>
<path id="path0_fill" fill-rule="evenodd" d="M 11.8652 5.77539C 12.2148 5.91992 12.5977 6 13 6C 13.9375 6 14.7754 5.56836 15.3262 4.89453C 15.748 4.37695 16 3.71875 16 3C 16 1.34375 14.6562 0 13 0C 11.3438 0 10 1.34375 10 3C 10 3.12305 10.0078 3.24414 10.0234 3.36328C 10.0352 3.45703 10.0508 3.54883 10.0703 3.63867L 5.64062 5.60547C 5.13867 4.6543 4.15039 4.00195 3 4.00195C 1.87109 4.00195 0.886719 4.62695 0.375 5.54883C 0.136719 5.97852 0 6.47461 0 7.00195C 0 8.6582 1.34375 10.002 3 10.002C 4.07617 10.002 5.01367 9.42969 5.54297 8.57422L 10.043 10.5723L 10.0215 10.7129C 10.0098 10.8086 10 10.9043 10 11.002C 10 12.6582 11.3438 14.002 13 14.002C 14.6562 14.002 16 12.6582 16 11.002C 16 9.3457 14.6562 8.00195 13 8.00195C 11.8496 8.00195 10.8613 8.6543 10.3574 9.60547L 5.92773 7.63867C 5.97266 7.43164 5.99805 7.2207 5.99805 7L 5.99219 6.86914L 5.97656 6.71875L 5.95508 6.57227L 10.4551 4.57422C 10.7871 5.10938 11.2793 5.5332 11.8652 5.77539ZM 15 11C 15 12.1035 14.1035 13 13 13C 12.5957 13 12.2207 12.8809 11.9062 12.6758C 11.3613 12.3184 11 11.7012 11 11C 11 9.89648 11.8945 9 13 9C 14.1035 9 15 9.89648 15 11ZM 3 5C 1.89453 5 1 5.89648 1 7C 1 7.64844 1.30859 8.22461 1.78711 8.58984C 2.12305 8.8457 2.54297 9 3 9C 4.10352 9 5 8.10352 5 7C 5 5.89648 4.10352 5 3 5ZM 12.0371 1.24805C 12.3223 1.08984 12.6504 1 13 1C 14.1035 1 15 1.89648 15 3C 15 4.10352 14.1035 5 13 5C 11.8945 5 11 4.10352 11 3C 11 2.24609 11.418 1.58789 12.0371 1.24805Z"/>
</defs>
</svg>
