<svg width="32" height="28" viewBox="0 0 32 28" version="1.1" xmlns="http://www.w3.org/2000/svg" xmlns:xlink="http://www.w3.org/1999/xlink">
<title>Shape</title>
<desc>Created using Figma</desc>
<g id="Canvas" transform="translate(-17134 -21788)">
<g id="Shape">
<use xlink:href="#path0_fill" transform="translate(17134 21788)" fill="#EB663A"/>
</g>
</g>
<defs>
<path id="path0_fill" fill-rule="evenodd" d="M 31 28L 24 23.625L 24 24C 24 25.375 23.3047 26.5898 22.2461 27.3105C 21.9121 27.5371 21.541 27.7148 21.1465 27.834C 20.7832 27.9414 20.3984 28 20 28L 4 28C 1.79102 28 0 26.209 0 24L 0 16C 0 14.4902 0.845703 13.1914 2.08008 12.5098C 1.88672 12.3418 1.70312 12.1621 1.53125 11.9707C 0.984375 11.3594 0.556641 10.6387 0.294922 9.8418C 0.259766 9.73828 0.228516 9.63281 0.199219 9.52344C 0.175781 9.43164 0.152344 9.33984 0.132812 9.24609C 0.0449219 8.8457 0 8.42773 0 8C 0 4.6875 2.68555 2 6 2C 9.31445 2 12 4.6875 12 8C 12 9.54492 11.4004 10.9375 10.4434 11.998L 14.1094 11.998C 12.8105 10.7285 12 8.96094 12 7.00195C 12 3.13477 15.1348 0 19 0C 22.8652 0 26 3.13477 26 7.00195C 26 7.98242 25.7969 8.91211 25.4297 9.75586C 24.8438 11.1016 23.8438 12.2266 22.5938 12.9785C 23.4473 13.7129 24 14.7871 24 16L 24 16.377L 31 11.998C 31.3125 11.998 31.5918 12.1426 31.7754 12.3672C 31.8301 12.4336 31.877 12.5078 31.9121 12.5879C 31.9688 12.7129 32 12.8535 32 13L 32 27C 32 27.5527 31.5527 28 31 28ZM 6 4C 3.79102 4 2 5.79102 2 8C 2 10.2109 3.79102 11.998 6 11.998C 8.20898 11.998 10 10.2109 10 8C 10 5.79102 8.20703 4 6 4ZM 2.95898 14.293C 3.04883 14.2383 3.14258 14.1895 3.24023 14.1484C 3.47461 14.0527 3.73242 14 4 14L 20 14C 21.1035 14 22 14.8965 22 16L 22 18.002L 22 22.002L 22 24C 22 25.1035 21.1035 26 20 26L 4 26C 3.80469 26 3.61523 25.9707 3.43555 25.918C 3.23242 25.8594 3.04297 25.7676 2.87305 25.6523C 2.3457 25.291 2 24.6855 2 24L 2 16C 2 15.2773 2.38281 14.6445 2.95898 14.293ZM 24 7.00195C 24 4.24023 21.7617 2 19 2C 16.2383 2 14 4.24023 14 7.00195C 14 9.76172 16.2383 11.998 19 11.998C 21.7617 11.998 24 9.76172 24 7.00195ZM 24 18.002L 30 15.002L 30 25L 24 22.002L 24 18.002Z"/>
</defs>
</svg>
