<svg width="22" height="14" viewBox="0 0 22 14" version="1.1" xmlns="http://www.w3.org/2000/svg" xmlns:xlink="http://www.w3.org/1999/xlink">
<title>Fill 4</title>
<desc>Created using Figma</desc>
<g id="Canvas" transform="translate(-17636 -20777)">
<g id="Fill 4">
<use xlink:href="#path0_fill" transform="translate(17636 20777)" fill="#FFFFFF"/>
</g>
</g>
<defs>
<path id="path0_fill" fill-rule="evenodd" d="M 10.764 13.9413L 12.0789 13.9413C 12.0789 13.9413 12.476 13.8925 12.6791 13.6488C 12.8657 13.4248 12.8597 13.0045 12.8597 13.0045C 12.8597 13.0045 12.834 11.0363 13.6528 10.7465C 14.4603 10.4608 15.4969 12.6486 16.5955 13.4899C 17.4264 14.1264 18.0578 13.9871 18.0578 13.9871L 20.9958 13.9413C 20.9958 13.9413 22.5326 13.8355 21.8039 12.4876C 21.7442 12.3775 21.3793 11.4906 19.6193 9.6683C 17.777 7.76098 18.0239 8.06956 20.243 4.77037C 21.5945 2.76116 22.1347 1.53461 21.9659 1.0093C 21.805 0.508791 20.811 0.641004 20.811 0.641004L 17.503 0.663817C 17.503 0.663817 17.2576 0.626572 17.0759 0.747897C 16.8981 0.866543 16.784 1.14376 16.784 1.14376C 16.784 1.14376 16.2602 2.69843 15.5622 4.02082C 14.0892 6.81077 13.5001 6.95845 13.2593 6.78493C 12.6992 6.38112 12.8391 5.16303 12.8391 4.29743C 12.8391 1.59354 13.2068 0.466189 12.1232 0.174369C 11.7636 0.077586 11.4988 0.0135534 10.5791 0.00309736C 9.39873 -0.0102968 8.39992 0.00715882 7.83424 0.316261C 7.45789 0.521839 7.16754 0.979832 7.34448 1.00619C 7.56317 1.03868 8.0582 1.15525 8.32067 1.55362C 8.65975 2.06821 8.6479 3.22339 8.6479 3.22339C 8.6479 3.22339 8.84273 6.40627 8.193 6.80153C 7.74716 7.07269 7.13547 6.51912 5.82221 3.98789C 5.14946 2.69134 4.64134 1.258 4.64134 1.258C 4.64134 1.258 4.5435 0.990201 4.36873 0.846841C 4.15677 0.673149 3.86061 0.618104 3.86061 0.618104L 0.717062 0.641004C 0.717062 0.641004 0.245274 0.655694 0.0718976 0.884604C -0.0823437 1.08837 0.05958 1.50929 0.05958 1.50929C 0.05958 1.50929 2.52047 7.93173 5.30719 11.1683C 7.86267 14.1361 10.764 13.9413 10.764 13.9413Z"/>
</defs>
</svg>
